<svg xmlns="http://www.w3.org/2000/svg" width="200" height="80.19" viewBox="0 0 200 80.19">
  <g id="SWISSCOTEC_LOGO" data-name="SWISSCOTEC LOGO" transform="translate(-105.82 -171.35)">
    <path id="Path_12" data-name="Path 12" d="M129.9,350.845q-2.06,1.222-7.888,1.381-7.983-.114-12.062-4.647a16.17,16.17,0,0,1-4.126-11.427q.089-8.23,4.945-12.579a16.953,16.953,0,0,1,11.9-4.323,26.3,26.3,0,0,1,4.72.438,11.2,11.2,0,0,1,2.885.993l-1.457,5.663a10.561,10.561,0,0,0-2.485-.832,14.665,14.665,0,0,0-3.38-.349,9.578,9.578,0,0,0-6.942,2.615q-2.857,2.593-2.888,8.011.133,10.233,9.875,10.421a16.41,16.41,0,0,0,3.247-.317,12.555,12.555,0,0,0,2.619-.717Z" transform="translate(0 -100.955)" fill="#231f20"/>
    <path id="Path_13" data-name="Path 13" d="M403.508,326.99H395.16v-6.05h23.806v6.05h-8.478v25.853H403.5Z" transform="translate(-197.501 -102.109)" fill="#231f20"/>
    <path id="Path_14" data-name="Path 14" d="M552.486,339.343H541.123v7.589h12.7v5.917H534.14V320.94h19.045v5.917H541.123v6.618h11.363Z" transform="translate(-292.367 -102.109)" fill="#231f20"/>
    <path id="Path_15" data-name="Path 15" d="M682.956,350.845q-2.06,1.222-7.888,1.381-7.983-.114-12.062-4.647a16.17,16.17,0,0,1-4.126-11.427q.089-8.23,4.945-12.579a16.954,16.954,0,0,1,11.9-4.323,26.3,26.3,0,0,1,4.72.438,11.205,11.205,0,0,1,2.885.993l-1.457,5.663a10.56,10.56,0,0,0-2.485-.832,14.666,14.666,0,0,0-3.38-.349,9.578,9.578,0,0,0-6.942,2.615q-2.857,2.593-2.888,8.011.133,10.233,9.875,10.421a16.409,16.409,0,0,0,3.247-.317,12.554,12.554,0,0,0,2.619-.717Z" transform="translate(-377.513 -100.955)" fill="#231f20"/>
    <path id="Path_16" data-name="Path 16" d="M114.818,196.4a16.306,16.306,0,0,0,8.021,1.99q5.053-.07,5.1-3.514a3.219,3.219,0,0,0-1.247-2.52,13.033,13.033,0,0,0-4.126-1.9,16.935,16.935,0,0,1-6.348-3.745,7.618,7.618,0,0,1-2.476-5.78A8.64,8.64,0,0,1,117,174.057q3.139-2.66,8.713-2.707,5.364.092,8.094,1.619l-1.628,5.78a12.508,12.508,0,0,0-2.555-1.041,12.723,12.723,0,0,0-1.86-.394q-1-.092-2.254-.092a5.53,5.53,0,0,0-3.463.9,2.663,2.663,0,0,0-1.184,2.174,2.793,2.793,0,0,0,1.412,2.381,25.573,25.573,0,0,0,4.517,2.174q8.294,2.936,8.253,9.573A9.11,9.11,0,0,1,132,201.339q-3.136,2.914-9.659,2.984-5.859-.162-8.951-1.987Z" transform="translate(-5.167 0)" fill="#231f20"/>
    <path id="Path_17" data-name="Path 17" d="M249.656,204.9,242.33,173h7.481l2.33,13.112q1.054,6.015,1.838,11.214h.089q.828-5.294,2.016-11.309L258.705,173h7.437l2.463,13.436q1.006,5.5,1.657,10.706h.089q.784-5.342,1.793-11.109l2.508-13.014h7.123L273.8,204.9h-7.57l-2.619-13.734q-.917-4.6-1.479-9.84h-.089q-.717,5.2-1.793,9.84L257.318,204.9Z" transform="translate(-93.18 -1.126)" fill="#231f20"/>
    <path id="Path_18" data-name="Path 18" d="M441.163,173v31.9H434.18V173Z" transform="translate(-224.135 -1.126)" fill="#231f20"/>
    <path id="Path_19" data-name="Path 19" d="M526.183,196.4a16.306,16.306,0,0,0,8.021,1.99q5.053-.07,5.1-3.514a3.219,3.219,0,0,0-1.247-2.52,13.033,13.033,0,0,0-4.126-1.9,16.935,16.935,0,0,1-6.348-3.745,7.618,7.618,0,0,1-2.476-5.78,8.64,8.64,0,0,1,3.257-6.869q3.139-2.66,8.713-2.707,5.364.092,8.094,1.619l-1.593,5.761a12.508,12.508,0,0,0-2.555-1.041,12.722,12.722,0,0,0-1.86-.394q-1-.092-2.254-.092a5.53,5.53,0,0,0-3.463.9,2.663,2.663,0,0,0-1.184,2.174,2.793,2.793,0,0,0,1.412,2.381,25.757,25.757,0,0,0,4.507,2.177q8.294,2.936,8.253,9.573a9.11,9.11,0,0,1-3.044,6.913q-3.136,2.914-9.659,2.984-5.859-.162-8.951-1.987Z" transform="translate(-285.978 0)" fill="#231f20"/>
    <path id="Path_20" data-name="Path 20" d="M658.618,196.4a16.306,16.306,0,0,0,8.021,1.99q5.053-.07,5.1-3.514a3.219,3.219,0,0,0-1.247-2.52,13.034,13.034,0,0,0-4.126-1.9,16.936,16.936,0,0,1-6.348-3.745,7.618,7.618,0,0,1-2.476-5.78,8.64,8.64,0,0,1,3.257-6.869q3.139-2.66,8.713-2.707,5.364.092,8.094,1.619l-1.628,5.78a12.5,12.5,0,0,0-2.555-1.041,12.725,12.725,0,0,0-1.86-.394q-1-.092-2.254-.092a5.53,5.53,0,0,0-3.463.9,2.663,2.663,0,0,0-1.184,2.174,2.793,2.793,0,0,0,1.413,2.381,25.575,25.575,0,0,0,4.517,2.174q8.294,2.936,8.253,9.573a9.11,9.11,0,0,1-3.044,6.913q-3.136,2.914-9.659,2.984-5.859-.162-8.951-1.987Z" transform="translate(-376.36 0)" fill="#231f20"/>
    <circle id="Ellipse_3" data-name="Ellipse 3" cx="17.318" cy="17.318" r="17.318" transform="translate(148.172 216.905)" fill="#ed1c24"/>
    <path id="Path_21" data-name="Path 21" d="M269.013,327.1v11h10.255v4.685H269.013v11.179H264.23V342.79H254V338.1h10.23v-11Z" transform="translate(-101.146 -106.313)" fill="#fff"/>
  </g>
</svg>
